<mxfile host="app.diagrams.net" agent="Mozilla/5.0 (Windows NT 10.0; Win64; x64) AppleWebKit/537.36 (KHTML, like Gecko) Chrome/127.0.0.0 Safari/537.36" version="24.7.6" pages="2">
  <diagram name="Page-1" id="OAlts9f6pve1r0j7_M1s">
    <mxGraphModel dx="548" dy="308" grid="1" gridSize="10" guides="1" tooltips="1" connect="1" arrows="1" fold="1" page="1" pageScale="1" pageWidth="850" pageHeight="1100" math="0" shadow="0">
      <root>
        <mxCell id="0" />
        <mxCell id="1" parent="0" />
        <mxCell id="yqJkYdkQUNbF2SLnBtgY-1" value="Idle" style="rounded=1;whiteSpace=wrap;html=1;" parent="1" vertex="1">
          <mxGeometry x="40" y="198" width="120" height="40" as="geometry" />
        </mxCell>
        <mxCell id="yqJkYdkQUNbF2SLnBtgY-2" value="Requested Service" style="rounded=1;whiteSpace=wrap;html=1;" parent="1" vertex="1">
          <mxGeometry x="240" y="560" width="120" height="40" as="geometry" />
        </mxCell>
        <mxCell id="yqJkYdkQUNbF2SLnBtgY-4" value="Tracked Service Provider" style="rounded=1;whiteSpace=wrap;html=1;" parent="1" vertex="1">
          <mxGeometry x="239.94" y="1159" width="120" height="40" as="geometry" />
        </mxCell>
        <mxCell id="yqJkYdkQUNbF2SLnBtgY-5" value="Service Completed" style="rounded=1;whiteSpace=wrap;html=1;" parent="1" vertex="1">
          <mxGeometry x="559" y="1319" width="120" height="40" as="geometry" />
        </mxCell>
        <mxCell id="yqJkYdkQUNbF2SLnBtgY-6" value="Logged In" style="rounded=1;whiteSpace=wrap;html=1;" parent="1" vertex="1">
          <mxGeometry x="240" y="198" width="120" height="40" as="geometry" />
        </mxCell>
        <mxCell id="yqJkYdkQUNbF2SLnBtgY-8" value="Selected Service Category" style="rounded=1;whiteSpace=wrap;html=1;" parent="1" vertex="1">
          <mxGeometry x="240" y="319" width="120" height="40" as="geometry" />
        </mxCell>
        <mxCell id="yqJkYdkQUNbF2SLnBtgY-9" value="Selected Service Providers" style="rounded=1;whiteSpace=wrap;html=1;" parent="1" vertex="1">
          <mxGeometry x="240" y="440" width="120" height="40" as="geometry" />
        </mxCell>
        <mxCell id="yqJkYdkQUNbF2SLnBtgY-10" value="Made Payment" style="rounded=1;whiteSpace=wrap;html=1;" parent="1" vertex="1">
          <mxGeometry x="238.94" y="1319" width="120" height="40" as="geometry" />
        </mxCell>
        <mxCell id="yqJkYdkQUNbF2SLnBtgY-85" value="" style="edgeStyle=none;curved=1;rounded=0;orthogonalLoop=1;jettySize=auto;html=1;fontSize=12;startSize=8;endSize=8;" parent="1" source="yqJkYdkQUNbF2SLnBtgY-11" target="yqJkYdkQUNbF2SLnBtgY-83" edge="1">
          <mxGeometry relative="1" as="geometry" />
        </mxCell>
        <mxCell id="yqJkYdkQUNbF2SLnBtgY-11" value="Waited for Response&lt;div&gt;(Accepted/Rejected)&lt;/div&gt;" style="rounded=1;whiteSpace=wrap;html=1;" parent="1" vertex="1">
          <mxGeometry x="240" y="679" width="120" height="40" as="geometry" />
        </mxCell>
        <mxCell id="yqJkYdkQUNbF2SLnBtgY-13" value="Service Provider Hired" style="rounded=1;whiteSpace=wrap;html=1;" parent="1" vertex="1">
          <mxGeometry x="238.94000000000005" y="960" width="120" height="40" as="geometry" />
        </mxCell>
        <mxCell id="yqJkYdkQUNbF2SLnBtgY-14" value="" style="ellipse;html=1;shape=startState;fillColor=#000000;strokeColor=#ff0000;" parent="1" vertex="1">
          <mxGeometry x="85" y="126" width="30" height="30" as="geometry" />
        </mxCell>
        <mxCell id="yqJkYdkQUNbF2SLnBtgY-15" value="" style="edgeStyle=orthogonalEdgeStyle;html=1;verticalAlign=bottom;endArrow=open;endSize=8;strokeColor=#ff0000;rounded=0;fontSize=12;curved=1;" parent="1" edge="1">
          <mxGeometry relative="1" as="geometry">
            <mxPoint x="100" y="195" as="targetPoint" />
            <mxPoint x="100" y="155" as="sourcePoint" />
          </mxGeometry>
        </mxCell>
        <mxCell id="yqJkYdkQUNbF2SLnBtgY-35" value="NO - Not yet Request Accepted&amp;nbsp;" style="html=1;verticalAlign=bottom;endArrow=block;curved=0;rounded=0;fontSize=12;startSize=8;endSize=8;entryX=1;entryY=0.5;entryDx=0;entryDy=0;exitX=1;exitY=0.5;exitDx=0;exitDy=0;" parent="1" source="yqJkYdkQUNbF2SLnBtgY-83" target="yqJkYdkQUNbF2SLnBtgY-11" edge="1">
          <mxGeometry width="80" relative="1" as="geometry">
            <mxPoint x="340" y="803" as="sourcePoint" />
            <mxPoint x="490" y="685" as="targetPoint" />
            <Array as="points">
              <mxPoint x="440" y="815" />
              <mxPoint x="440" y="700" />
            </Array>
          </mxGeometry>
        </mxCell>
        <mxCell id="yqJkYdkQUNbF2SLnBtgY-37" value="" style="endArrow=open;endFill=1;endSize=12;html=1;rounded=0;fontSize=12;curved=1;exitX=1;exitY=0.5;exitDx=0;exitDy=0;entryX=0;entryY=0.5;entryDx=0;entryDy=0;" parent="1" source="yqJkYdkQUNbF2SLnBtgY-1" target="yqJkYdkQUNbF2SLnBtgY-6" edge="1">
          <mxGeometry width="160" relative="1" as="geometry">
            <mxPoint x="160" y="215" as="sourcePoint" />
            <mxPoint x="425" y="314.5" as="targetPoint" />
          </mxGeometry>
        </mxCell>
        <mxCell id="yqJkYdkQUNbF2SLnBtgY-38" value="" style="endArrow=open;endFill=1;endSize=12;html=1;rounded=0;fontSize=12;curved=1;exitX=0.5;exitY=1;exitDx=0;exitDy=0;entryX=0.5;entryY=0;entryDx=0;entryDy=0;" parent="1" source="yqJkYdkQUNbF2SLnBtgY-6" target="yqJkYdkQUNbF2SLnBtgY-8" edge="1">
          <mxGeometry width="160" relative="1" as="geometry">
            <mxPoint x="170" y="225" as="sourcePoint" />
            <mxPoint x="300.00000000000006" y="275" as="targetPoint" />
          </mxGeometry>
        </mxCell>
        <mxCell id="yqJkYdkQUNbF2SLnBtgY-41" value="" style="endArrow=open;endFill=1;endSize=12;html=1;rounded=0;fontSize=12;curved=1;entryX=0.5;entryY=0;entryDx=0;entryDy=0;exitX=0.5;exitY=1;exitDx=0;exitDy=0;" parent="1" source="yqJkYdkQUNbF2SLnBtgY-2" target="yqJkYdkQUNbF2SLnBtgY-11" edge="1">
          <mxGeometry width="160" relative="1" as="geometry">
            <mxPoint x="300.44" y="612" as="sourcePoint" />
            <mxPoint x="300.44" y="653" as="targetPoint" />
          </mxGeometry>
        </mxCell>
        <mxCell id="yqJkYdkQUNbF2SLnBtgY-42" value="" style="endArrow=open;endFill=1;endSize=12;html=1;rounded=0;fontSize=12;curved=1;exitX=0.5;exitY=1;exitDx=0;exitDy=0;entryX=0.5;entryY=0;entryDx=0;entryDy=0;" parent="1" source="yqJkYdkQUNbF2SLnBtgY-9" target="yqJkYdkQUNbF2SLnBtgY-2" edge="1">
          <mxGeometry width="160" relative="1" as="geometry">
            <mxPoint x="301" y="526.81" as="sourcePoint" />
            <mxPoint x="301" y="560" as="targetPoint" />
          </mxGeometry>
        </mxCell>
        <mxCell id="yqJkYdkQUNbF2SLnBtgY-45" value="" style="endArrow=open;endFill=1;endSize=12;html=1;rounded=0;fontSize=12;curved=1;exitX=0.5;exitY=1;exitDx=0;exitDy=0;entryX=0.5;entryY=0;entryDx=0;entryDy=0;" parent="1" source="yqJkYdkQUNbF2SLnBtgY-8" target="yqJkYdkQUNbF2SLnBtgY-9" edge="1">
          <mxGeometry width="160" relative="1" as="geometry">
            <mxPoint x="424" y="394" as="sourcePoint" />
            <mxPoint x="420" y="435" as="targetPoint" />
          </mxGeometry>
        </mxCell>
        <mxCell id="yqJkYdkQUNbF2SLnBtgY-48" value="If need an Emergency" style="rhombus;whiteSpace=wrap;html=1;fillColor=#ffe6cc;strokeColor=#d79b00;" parent="1" vertex="1">
          <mxGeometry x="830" y="1129" width="90" height="100" as="geometry" />
        </mxCell>
        <mxCell id="yqJkYdkQUNbF2SLnBtgY-50" value="NO - No Need any Emergency" style="html=1;verticalAlign=bottom;endArrow=block;curved=0;rounded=0;fontSize=12;startSize=8;endSize=8;entryX=1;entryY=0.5;entryDx=0;entryDy=0;exitX=0.5;exitY=1;exitDx=0;exitDy=0;" parent="1" source="yqJkYdkQUNbF2SLnBtgY-48" target="yqJkYdkQUNbF2SLnBtgY-5" edge="1">
          <mxGeometry x="0.3058" y="-9" width="80" relative="1" as="geometry">
            <mxPoint x="630" y="1283" as="sourcePoint" />
            <mxPoint x="650" y="1175" as="targetPoint" />
            <Array as="points">
              <mxPoint x="875" y="1340" />
            </Array>
            <mxPoint as="offset" />
          </mxGeometry>
        </mxCell>
        <mxCell id="yqJkYdkQUNbF2SLnBtgY-51" value="" style="endArrow=open;endFill=1;endSize=12;html=1;rounded=0;fontSize=12;curved=1;entryX=0.5;entryY=0;entryDx=0;entryDy=0;exitX=0.5;exitY=1;exitDx=0;exitDy=0;" parent="1" source="yqJkYdkQUNbF2SLnBtgY-13" target="yqJkYdkQUNbF2SLnBtgY-4" edge="1">
          <mxGeometry width="160" relative="1" as="geometry">
            <mxPoint x="300.88" y="942" as="sourcePoint" />
            <mxPoint x="300.44" y="1005" as="targetPoint" />
          </mxGeometry>
        </mxCell>
        <mxCell id="yqJkYdkQUNbF2SLnBtgY-52" value="" style="endArrow=open;endFill=1;endSize=12;html=1;rounded=0;fontSize=12;curved=1;entryX=0;entryY=0.5;entryDx=0;entryDy=0;exitX=1;exitY=0.5;exitDx=0;exitDy=0;" parent="1" source="yqJkYdkQUNbF2SLnBtgY-4" target="yqJkYdkQUNbF2SLnBtgY-12" edge="1">
          <mxGeometry width="160" relative="1" as="geometry">
            <mxPoint x="431" y="1025" as="sourcePoint" />
            <mxPoint x="430" y="1105" as="targetPoint" />
          </mxGeometry>
        </mxCell>
        <mxCell id="yqJkYdkQUNbF2SLnBtgY-53" value="" style="endArrow=open;endFill=1;endSize=12;html=1;rounded=0;fontSize=12;curved=1;exitX=1;exitY=0.5;exitDx=0;exitDy=0;entryX=0;entryY=0.5;entryDx=0;entryDy=0;" parent="1" source="yqJkYdkQUNbF2SLnBtgY-12" target="yqJkYdkQUNbF2SLnBtgY-48" edge="1">
          <mxGeometry width="160" relative="1" as="geometry">
            <mxPoint x="641" y="1045" as="sourcePoint" />
            <mxPoint x="790" y="1190" as="targetPoint" />
          </mxGeometry>
        </mxCell>
        <mxCell id="yqJkYdkQUNbF2SLnBtgY-54" value="" style="endArrow=open;endFill=1;endSize=12;html=1;rounded=0;fontSize=12;curved=1;entryX=1;entryY=0.5;entryDx=0;entryDy=0;exitX=0;exitY=0.5;exitDx=0;exitDy=0;" parent="1" source="yqJkYdkQUNbF2SLnBtgY-5" target="yqJkYdkQUNbF2SLnBtgY-10" edge="1">
          <mxGeometry width="160" relative="1" as="geometry">
            <mxPoint x="401" y="1065" as="sourcePoint" />
            <mxPoint x="400" y="1145" as="targetPoint" />
          </mxGeometry>
        </mxCell>
        <mxCell id="yqJkYdkQUNbF2SLnBtgY-55" value="" style="rounded=1;whiteSpace=wrap;html=1;glass=0;movable=1;resizable=1;rotatable=1;deletable=1;editable=1;locked=0;connectable=1;" parent="1" vertex="1">
          <mxGeometry x="1116" y="1080" width="280" height="160" as="geometry" />
        </mxCell>
        <mxCell id="yqJkYdkQUNbF2SLnBtgY-56" value="Logged Out" style="rounded=1;whiteSpace=wrap;html=1;" parent="1" vertex="1">
          <mxGeometry x="239.94" y="1479" width="120" height="40" as="geometry" />
        </mxCell>
        <mxCell id="yqJkYdkQUNbF2SLnBtgY-57" value="" style="endArrow=open;endFill=1;endSize=12;html=1;rounded=0;fontSize=12;curved=1;entryX=0.514;entryY=-0.025;entryDx=0;entryDy=0;exitX=0.514;exitY=1.01;exitDx=0;exitDy=0;entryPerimeter=0;exitPerimeter=0;" parent="1" source="yqJkYdkQUNbF2SLnBtgY-10" target="yqJkYdkQUNbF2SLnBtgY-56" edge="1">
          <mxGeometry width="160" relative="1" as="geometry">
            <mxPoint x="460" y="1285" as="sourcePoint" />
            <mxPoint x="340" y="1285" as="targetPoint" />
          </mxGeometry>
        </mxCell>
        <mxCell id="yqJkYdkQUNbF2SLnBtgY-61" value="" style="html=1;verticalAlign=bottom;endArrow=block;curved=0;rounded=0;fontSize=12;startSize=8;endSize=8;exitX=0.994;exitY=0.621;exitDx=0;exitDy=0;exitPerimeter=0;" parent="1" source="yqJkYdkQUNbF2SLnBtgY-55" target="yqJkYdkQUNbF2SLnBtgY-56" edge="1">
          <mxGeometry width="80" relative="1" as="geometry">
            <mxPoint x="940" y="1225" as="sourcePoint" />
            <mxPoint x="780" y="1335" as="targetPoint" />
            <Array as="points">
              <mxPoint x="1480" y="1179" />
              <mxPoint x="1480" y="1500" />
            </Array>
          </mxGeometry>
        </mxCell>
        <mxCell id="yqJkYdkQUNbF2SLnBtgY-62" value="&lt;span style=&quot;font-size: 12px;&quot;&gt;&lt;b&gt;Login&lt;/b&gt;&lt;/span&gt;" style="text;html=1;align=center;verticalAlign=middle;whiteSpace=wrap;rounded=0;fontSize=16;" parent="1" vertex="1">
          <mxGeometry x="170" y="180" width="60" height="30" as="geometry" />
        </mxCell>
        <mxCell id="yqJkYdkQUNbF2SLnBtgY-67" value="&lt;span style=&quot;font-size: 12px;&quot;&gt;&lt;b&gt;Requesting service&lt;/b&gt;&lt;/span&gt;" style="text;html=1;align=center;verticalAlign=middle;whiteSpace=wrap;rounded=0;fontSize=16;" parent="1" vertex="1">
          <mxGeometry x="308.44" y="498" width="125" height="30" as="geometry" />
        </mxCell>
        <mxCell id="yqJkYdkQUNbF2SLnBtgY-69" value="&lt;span style=&quot;font-size: 12px;&quot;&gt;&lt;b&gt;Selecting Service Category&lt;/b&gt;&lt;/span&gt;" style="text;html=1;align=center;verticalAlign=middle;whiteSpace=wrap;rounded=0;fontSize=16;" parent="1" vertex="1">
          <mxGeometry x="300.94" y="260" width="180" height="30" as="geometry" />
        </mxCell>
        <mxCell id="yqJkYdkQUNbF2SLnBtgY-70" value="&lt;span style=&quot;font-size: 12px;&quot;&gt;&lt;b&gt;Selecting Service Providers&lt;/b&gt;&lt;/span&gt;" style="text;html=1;align=center;verticalAlign=middle;whiteSpace=wrap;rounded=0;fontSize=16;" parent="1" vertex="1">
          <mxGeometry x="307" y="385" width="175" height="30" as="geometry" />
        </mxCell>
        <mxCell id="yqJkYdkQUNbF2SLnBtgY-72" value="&lt;span style=&quot;font-size: 12px;&quot;&gt;&lt;b&gt;Waiting for Response&lt;/b&gt;&lt;/span&gt;" style="text;html=1;align=center;verticalAlign=middle;whiteSpace=wrap;rounded=0;fontSize=16;" parent="1" vertex="1">
          <mxGeometry x="299.94" y="618" width="150" height="30" as="geometry" />
        </mxCell>
        <mxCell id="yqJkYdkQUNbF2SLnBtgY-74" value="&lt;span style=&quot;font-size: 12px;&quot;&gt;&lt;b&gt;Hiring Service Provider&lt;/b&gt;&lt;/span&gt;" style="text;html=1;align=center;verticalAlign=middle;whiteSpace=wrap;rounded=0;fontSize=16;" parent="1" vertex="1">
          <mxGeometry x="299.94" y="908" width="150" height="30" as="geometry" />
        </mxCell>
        <mxCell id="yqJkYdkQUNbF2SLnBtgY-75" value="&lt;div style=&quot;text-align: justify;&quot;&gt;&lt;b style=&quot;font-size: 12px; background-color: initial;&quot;&gt;Tracking Service Provider&lt;/b&gt;&lt;/div&gt;" style="text;html=1;align=center;verticalAlign=middle;whiteSpace=wrap;rounded=0;fontSize=16;" parent="1" vertex="1">
          <mxGeometry x="309" y="1048" width="150" height="30" as="geometry" />
        </mxCell>
        <mxCell id="yqJkYdkQUNbF2SLnBtgY-76" value="&lt;span style=&quot;font-size: 12px;&quot;&gt;&lt;b&gt;Arriving Service Provider&lt;/b&gt;&lt;/span&gt;" style="text;html=1;align=center;verticalAlign=middle;whiteSpace=wrap;rounded=0;fontSize=16;" parent="1" vertex="1">
          <mxGeometry x="377" y="1148" width="150" height="30" as="geometry" />
        </mxCell>
        <mxCell id="yqJkYdkQUNbF2SLnBtgY-78" value="" style="html=1;verticalAlign=bottom;endArrow=block;curved=0;rounded=0;fontSize=12;startSize=8;endSize=8;entryX=0.5;entryY=0;entryDx=0;entryDy=0;" parent="1" source="yqJkYdkQUNbF2SLnBtgY-12" target="yqJkYdkQUNbF2SLnBtgY-5" edge="1">
          <mxGeometry width="80" relative="1" as="geometry">
            <mxPoint x="580" y="1165" as="sourcePoint" />
            <mxPoint x="610" y="1185" as="targetPoint" />
            <Array as="points" />
          </mxGeometry>
        </mxCell>
        <mxCell id="yqJkYdkQUNbF2SLnBtgY-79" value="&lt;span style=&quot;font-size: 12px;&quot;&gt;&lt;b&gt;Making Payment&lt;/b&gt;&lt;/span&gt;" style="text;html=1;align=center;verticalAlign=middle;whiteSpace=wrap;rounded=0;fontSize=16;" parent="1" vertex="1">
          <mxGeometry x="360" y="1305" width="150" height="30" as="geometry" />
        </mxCell>
        <mxCell id="yqJkYdkQUNbF2SLnBtgY-81" value="&lt;span style=&quot;font-size: 12px;&quot;&gt;&lt;b&gt;Login Out&lt;/b&gt;&lt;/span&gt;" style="text;html=1;align=center;verticalAlign=middle;whiteSpace=wrap;rounded=0;fontSize=16;" parent="1" vertex="1">
          <mxGeometry x="275" y="1400" width="150" height="30" as="geometry" />
        </mxCell>
        <mxCell id="yqJkYdkQUNbF2SLnBtgY-82" value="&lt;span style=&quot;font-size: 12px;&quot;&gt;&lt;b&gt;Login Out&lt;/b&gt;&lt;/span&gt;" style="text;html=1;align=center;verticalAlign=middle;whiteSpace=wrap;rounded=0;fontSize=16;" parent="1" vertex="1">
          <mxGeometry x="920" y="1466" width="150" height="30" as="geometry" />
        </mxCell>
        <mxCell id="yqJkYdkQUNbF2SLnBtgY-83" value="If Request Accepted" style="rhombus;whiteSpace=wrap;html=1;fillColor=#ffe6cc;strokeColor=#d79b00;" parent="1" vertex="1">
          <mxGeometry x="254.94" y="765" width="90" height="100" as="geometry" />
        </mxCell>
        <mxCell id="yqJkYdkQUNbF2SLnBtgY-88" value="" style="endArrow=open;endFill=1;endSize=12;html=1;rounded=0;fontSize=12;curved=1;exitX=0.5;exitY=1;exitDx=0;exitDy=0;entryX=0.5;entryY=0;entryDx=0;entryDy=0;" parent="1" source="yqJkYdkQUNbF2SLnBtgY-83" target="yqJkYdkQUNbF2SLnBtgY-13" edge="1">
          <mxGeometry width="160" relative="1" as="geometry">
            <mxPoint x="440" y="925" as="sourcePoint" />
            <mxPoint x="600" y="925" as="targetPoint" />
          </mxGeometry>
        </mxCell>
        <mxCell id="yqJkYdkQUNbF2SLnBtgY-12" value="Service Provider Arrived" style="rounded=1;whiteSpace=wrap;html=1;" parent="1" vertex="1">
          <mxGeometry x="560" y="1159" width="120" height="40" as="geometry" />
        </mxCell>
        <mxCell id="yqJkYdkQUNbF2SLnBtgY-94" value="&lt;span style=&quot;font-size: 12px;&quot;&gt;YES - Request Accepted&lt;/span&gt;" style="text;html=1;align=center;verticalAlign=middle;whiteSpace=wrap;rounded=0;fontSize=16;" parent="1" vertex="1">
          <mxGeometry x="300.94" y="878" width="150" height="30" as="geometry" />
        </mxCell>
        <mxCell id="yqJkYdkQUNbF2SLnBtgY-95" value="" style="ellipse;html=1;shape=endState;fillColor=#000000;strokeColor=#ff0000;" parent="1" vertex="1">
          <mxGeometry x="283.94" y="1720" width="30" height="30" as="geometry" />
        </mxCell>
        <mxCell id="yqJkYdkQUNbF2SLnBtgY-96" value="" style="endArrow=open;endFill=1;endSize=12;html=1;rounded=0;fontSize=12;curved=1;entryX=0.5;entryY=0;entryDx=0;entryDy=0;exitX=0.5;exitY=1;exitDx=0;exitDy=0;" parent="1" source="yqJkYdkQUNbF2SLnBtgY-56" target="yqJkYdkQUNbF2SLnBtgY-95" edge="1">
          <mxGeometry width="160" relative="1" as="geometry">
            <mxPoint x="290" y="1555" as="sourcePoint" />
            <mxPoint x="288.94" y="1645" as="targetPoint" />
          </mxGeometry>
        </mxCell>
        <mxCell id="yqJkYdkQUNbF2SLnBtgY-97" value="&lt;font size=&quot;1&quot; style=&quot;&quot;&gt;&lt;b style=&quot;font-size: 22px;&quot;&gt;State Chart Diagram for Service Seekers&lt;/b&gt;&lt;/font&gt;" style="text;html=1;align=center;verticalAlign=middle;whiteSpace=wrap;rounded=0;fontSize=16;" parent="1" vertex="1">
          <mxGeometry x="290" y="50" width="475" height="30" as="geometry" />
        </mxCell>
        <mxCell id="Xl5_bm3ahUDq3wwwWSzc-2" value="" style="endArrow=open;endFill=1;endSize=12;html=1;rounded=0;fontSize=12;curved=1;exitX=1;exitY=0.5;exitDx=0;exitDy=0;entryX=0.005;entryY=0.615;entryDx=0;entryDy=0;entryPerimeter=0;" parent="1" source="yqJkYdkQUNbF2SLnBtgY-48" edge="1" target="yqJkYdkQUNbF2SLnBtgY-55">
          <mxGeometry width="160" relative="1" as="geometry">
            <mxPoint x="910" y="1190" as="sourcePoint" />
            <mxPoint x="1040" y="1180" as="targetPoint" />
          </mxGeometry>
        </mxCell>
        <mxCell id="Xl5_bm3ahUDq3wwwWSzc-5" value="&lt;b&gt;Selected Emergency Assistant&lt;/b&gt;" style="text;html=1;align=center;verticalAlign=middle;whiteSpace=wrap;rounded=0;" parent="1" vertex="1">
          <mxGeometry x="1125" y="1087" width="185" height="21" as="geometry" />
        </mxCell>
        <mxCell id="Xl5_bm3ahUDq3wwwWSzc-6" value="" style="endArrow=none;html=1;rounded=0;exitX=0;exitY=0.25;exitDx=0;exitDy=0;entryX=1;entryY=0.25;entryDx=0;entryDy=0;" parent="1" source="yqJkYdkQUNbF2SLnBtgY-55" target="yqJkYdkQUNbF2SLnBtgY-55" edge="1">
          <mxGeometry width="50" height="50" relative="1" as="geometry">
            <mxPoint x="1190" y="1188" as="sourcePoint" />
            <mxPoint x="1240" y="1138" as="targetPoint" />
          </mxGeometry>
        </mxCell>
        <mxCell id="Xl5_bm3ahUDq3wwwWSzc-8" value="" style="endArrow=none;dashed=1;html=1;rounded=0;exitX=0;exitY=0.5;exitDx=0;exitDy=0;entryX=1;entryY=0.5;entryDx=0;entryDy=0;" parent="1" source="yqJkYdkQUNbF2SLnBtgY-55" target="yqJkYdkQUNbF2SLnBtgY-55" edge="1">
          <mxGeometry width="50" height="50" relative="1" as="geometry">
            <mxPoint x="1042.9199999999998" y="1159.9889999999998" as="sourcePoint" />
            <mxPoint x="1319.2799999999997" y="1158.915" as="targetPoint" />
          </mxGeometry>
        </mxCell>
        <mxCell id="Xl5_bm3ahUDq3wwwWSzc-9" value="" style="endArrow=none;dashed=1;html=1;rounded=0;exitX=0;exitY=0.75;exitDx=0;exitDy=0;entryX=1;entryY=0.75;entryDx=0;entryDy=0;" parent="1" source="yqJkYdkQUNbF2SLnBtgY-55" target="yqJkYdkQUNbF2SLnBtgY-55" edge="1">
          <mxGeometry width="50" height="50" relative="1" as="geometry">
            <mxPoint x="1133" y="1170" as="sourcePoint" />
            <mxPoint x="1409" y="1169" as="targetPoint" />
          </mxGeometry>
        </mxCell>
        <mxCell id="Xl5_bm3ahUDq3wwwWSzc-11" value="" style="ellipse;html=1;shape=startState;fillColor=#000000;strokeColor=#ff0000;" parent="1" vertex="1">
          <mxGeometry x="1132" y="1130" width="20" height="20" as="geometry" />
        </mxCell>
        <mxCell id="Xl5_bm3ahUDq3wwwWSzc-13" value="Guardian" style="rounded=1;whiteSpace=wrap;html=1;" parent="1" vertex="1">
          <mxGeometry x="1225" y="1129" width="80" height="21" as="geometry" />
        </mxCell>
        <mxCell id="Xl5_bm3ahUDq3wwwWSzc-14" value="Police" style="rounded=1;whiteSpace=wrap;html=1;" parent="1" vertex="1">
          <mxGeometry x="1224" y="1169.5" width="80" height="21" as="geometry" />
        </mxCell>
        <mxCell id="Xl5_bm3ahUDq3wwwWSzc-15" value="Ambulance" style="rounded=1;whiteSpace=wrap;html=1;" parent="1" vertex="1">
          <mxGeometry x="1224" y="1211" width="80" height="21" as="geometry" />
        </mxCell>
        <mxCell id="Xl5_bm3ahUDq3wwwWSzc-17" value="" style="ellipse;html=1;shape=startState;fillColor=#000000;strokeColor=#ff0000;" parent="1" vertex="1">
          <mxGeometry x="1131" y="1169" width="20" height="20" as="geometry" />
        </mxCell>
        <mxCell id="Xl5_bm3ahUDq3wwwWSzc-18" value="" style="ellipse;html=1;shape=startState;fillColor=#000000;strokeColor=#ff0000;" parent="1" vertex="1">
          <mxGeometry x="1131" y="1211" width="20" height="20" as="geometry" />
        </mxCell>
        <mxCell id="Xl5_bm3ahUDq3wwwWSzc-19" value="" style="edgeStyle=orthogonalEdgeStyle;html=1;verticalAlign=bottom;endArrow=open;endSize=8;strokeColor=#ff0000;rounded=0;exitX=0.797;exitY=0.517;exitDx=0;exitDy=0;exitPerimeter=0;entryX=0;entryY=0.5;entryDx=0;entryDy=0;" parent="1" source="Xl5_bm3ahUDq3wwwWSzc-17" target="Xl5_bm3ahUDq3wwwWSzc-14" edge="1">
          <mxGeometry relative="1" as="geometry">
            <mxPoint x="1273.99" y="1179.9857851239667" as="targetPoint" />
            <mxPoint x="1197.29" y="1179.9999999999998" as="sourcePoint" />
            <Array as="points">
              <mxPoint x="1150" y="1179" />
            </Array>
          </mxGeometry>
        </mxCell>
        <mxCell id="Xl5_bm3ahUDq3wwwWSzc-22" value="" style="edgeStyle=orthogonalEdgeStyle;html=1;verticalAlign=bottom;endArrow=open;endSize=8;strokeColor=#ff0000;rounded=0;entryX=0.004;entryY=0.559;entryDx=0;entryDy=0;exitX=0.814;exitY=0.498;exitDx=0;exitDy=0;exitPerimeter=0;entryPerimeter=0;" parent="1" target="Xl5_bm3ahUDq3wwwWSzc-13" edge="1" source="Xl5_bm3ahUDq3wwwWSzc-11">
          <mxGeometry relative="1" as="geometry">
            <mxPoint x="1242" y="1140.25" as="targetPoint" />
            <mxPoint x="1167" y="1139.75" as="sourcePoint" />
            <Array as="points">
              <mxPoint x="1160" y="1140" />
            </Array>
          </mxGeometry>
        </mxCell>
        <mxCell id="Xl5_bm3ahUDq3wwwWSzc-25" value="" style="ellipse;html=1;shape=endState;fillColor=#000000;strokeColor=#ff0000;" parent="1" vertex="1">
          <mxGeometry x="1361" y="1130" width="20" height="20" as="geometry" />
        </mxCell>
        <mxCell id="Xl5_bm3ahUDq3wwwWSzc-26" value="" style="ellipse;html=1;shape=endState;fillColor=#000000;strokeColor=#ff0000;" parent="1" vertex="1">
          <mxGeometry x="1360" y="1170" width="20" height="20" as="geometry" />
        </mxCell>
        <mxCell id="Xl5_bm3ahUDq3wwwWSzc-27" value="" style="ellipse;html=1;shape=endState;fillColor=#000000;strokeColor=#ff0000;" parent="1" vertex="1">
          <mxGeometry x="1360" y="1211.5" width="20" height="20" as="geometry" />
        </mxCell>
        <mxCell id="Xl5_bm3ahUDq3wwwWSzc-30" value="" style="edgeStyle=orthogonalEdgeStyle;html=1;verticalAlign=bottom;endArrow=open;endSize=8;strokeColor=#ff0000;rounded=0;exitX=0.802;exitY=0.531;exitDx=0;exitDy=0;exitPerimeter=0;entryX=0;entryY=0.5;entryDx=0;entryDy=0;" parent="1" source="Xl5_bm3ahUDq3wwwWSzc-18" target="Xl5_bm3ahUDq3wwwWSzc-15" edge="1">
          <mxGeometry relative="1" as="geometry">
            <mxPoint x="1100" y="1238" as="targetPoint" />
            <mxPoint x="1050" y="1238" as="sourcePoint" />
            <Array as="points" />
          </mxGeometry>
        </mxCell>
        <mxCell id="Xl5_bm3ahUDq3wwwWSzc-31" value="" style="endArrow=open;endFill=1;endSize=12;html=1;rounded=0;fontSize=12;curved=1;exitX=1;exitY=0.5;exitDx=0;exitDy=0;" parent="1" source="Xl5_bm3ahUDq3wwwWSzc-13" edge="1">
          <mxGeometry width="160" relative="1" as="geometry">
            <mxPoint x="1322" y="1139.4999999999998" as="sourcePoint" />
            <mxPoint x="1361" y="1140" as="targetPoint" />
          </mxGeometry>
        </mxCell>
        <mxCell id="Xl5_bm3ahUDq3wwwWSzc-33" value="" style="endArrow=open;endFill=1;endSize=12;html=1;rounded=0;fontSize=12;curved=1;exitX=1;exitY=0.5;exitDx=0;exitDy=0;entryX=0;entryY=0.5;entryDx=0;entryDy=0;" parent="1" source="Xl5_bm3ahUDq3wwwWSzc-14" target="Xl5_bm3ahUDq3wwwWSzc-26" edge="1">
          <mxGeometry width="160" relative="1" as="geometry">
            <mxPoint x="1200" y="1150" as="sourcePoint" />
            <mxPoint x="1265" y="1150" as="targetPoint" />
          </mxGeometry>
        </mxCell>
        <mxCell id="Xl5_bm3ahUDq3wwwWSzc-34" value="" style="endArrow=open;endFill=1;endSize=12;html=1;rounded=0;fontSize=12;curved=1;exitX=1;exitY=0.5;exitDx=0;exitDy=0;entryX=0;entryY=0.5;entryDx=0;entryDy=0;" parent="1" source="Xl5_bm3ahUDq3wwwWSzc-15" target="Xl5_bm3ahUDq3wwwWSzc-27" edge="1">
          <mxGeometry width="160" relative="1" as="geometry">
            <mxPoint x="1210" y="1160" as="sourcePoint" />
            <mxPoint x="1275" y="1160" as="targetPoint" />
          </mxGeometry>
        </mxCell>
        <mxCell id="Rv0Ihlk27orGszwa-iVc-1" value="&lt;span style=&quot;color: rgb(0, 0, 0); font-family: Helvetica; font-size: 11px; font-style: normal; font-variant-ligatures: normal; font-variant-caps: normal; font-weight: 400; letter-spacing: normal; orphans: 2; text-align: center; text-indent: 0px; text-transform: none; widows: 2; word-spacing: 0px; -webkit-text-stroke-width: 0px; white-space: nowrap; background-color: rgb(255, 255, 255); text-decoration-thickness: initial; text-decoration-style: initial; text-decoration-color: initial; display: inline !important; float: none;&quot;&gt;YES - Need an Emergency&lt;/span&gt;" style="text;whiteSpace=wrap;html=1;" vertex="1" parent="1">
          <mxGeometry x="930" y="1148" width="170" height="40" as="geometry" />
        </mxCell>
      </root>
    </mxGraphModel>
  </diagram>
  <diagram name="Page-2" id="7AQGus-UJxZjXBqUPNWA">
    <mxGraphModel dx="794" dy="446" grid="1" gridSize="10" guides="1" tooltips="1" connect="1" arrows="1" fold="1" page="1" pageScale="1" pageWidth="850" pageHeight="1100" math="0" shadow="0">
      <root>
        <mxCell id="0" />
        <mxCell id="1" parent="0" />
      </root>
    </mxGraphModel>
  </diagram>
</mxfile>
